#tb 0: 1/25
#media_type 0: video
#codec_id 0: rawvideo
#dimensions 0: 176x144
#sar 0: 0/1
0,          0,          0,        1,    38016, 0x6951213f
0,          1,          1,        1,    38016, 0x82ddf39d
0,          2,          2,        1,    38016, 0x3f81c6b1
0,          3,          3,        1,    38016, 0x55149f23
0,          4,          4,        1,    38016, 0x366a74e1
0,          5,          5,        1,    38016, 0xe6f465cf
0,          6,          6,        1,    38016, 0x14fd4999
0,          7,          7,        1,    38016, 0x49273f0f
0,          8,          8,        1,    38016, 0xa20a2ebe
0,          9,          9,        1,    38016, 0x701b32a4
0,         10,         10,        1,    38016, 0x8a394066
0,         11,         11,        1,    38016, 0xe9b766a6
0,         12,         12,        1,    38016, 0x4e7f766d
0,         13,         13,        1,    38016, 0x2c159585
0,         14,         14,        1,    38016, 0x31b38c2b
0,         15,         15,        1,    38016, 0xde58937f
0,         16,         16,        1,    38016, 0xf69e94f9
0,         17,         17,        1,    38016, 0x849e8a08
0,         18,         18,        1,    38016, 0xe53f79e9
0,         19,         19,        1,    38016, 0xf2ce6103
0,         20,         20,        1,    38016, 0xe98d3c96
0,         21,         21,        1,    38016, 0xea8c17c5
0,         22,         22,        1,    38016, 0xea0a01d8
0,         23,         23,        1,    38016, 0x6a45fd53
0,         24,         24,        1,    38016, 0xaad9fd47
0,         25,         25,        1,    38016, 0xabc603b7
0,         26,         26,        1,    38016, 0x89410350
0,         27,         27,        1,    38016, 0x1fac129b
0,         28,         28,        1,    38016, 0x1af529ee
0,         29,         29,        1,    38016, 0x384141b6
